ply
format ascii 1.0
element vertex 343
property float end_x
property float end_y
property float end_z
property int path_id
property int group_id
end_header
1.679423 -2.485868 0.000000 0.000000 0.000000
1.840582 -2.369020 0.000000 1.000000 0.000000
1.993638 -2.241742 0.000000 2.000000 0.000000
2.137916 -2.104594 0.000000 3.000000 0.000000
2.272780 -1.958180 0.000000 4.000000 0.000000
2.397639 -1.803144 0.000000 5.000000 0.000000
2.511940 -1.640170 0.000000 6.000000 0.000000
1.924048 -2.301747 0.000000 7.000000 0.000000
2.072458 -2.169082 0.000000 8.000000 0.000000
2.211744 -2.026867 0.000000 9.000000 0.000000
2.341291 -1.875728 0.000000 10.000000 0.000000
2.460531 -1.716330 0.000000 11.000000 0.000000
2.568937 -1.549376 0.000000 12.000000 0.000000
2.666032 -1.375600 0.000000 13.000000 0.000000
2.148632 -2.093653 0.000000 14.000000 0.000000
2.282748 -1.946552 0.000000 15.000000 0.000000
2.406812 -1.790881 0.000000 16.000000 0.000000
2.520281 -1.627325 0.000000 17.000000 0.000000
2.622653 -1.456604 0.000000 18.000000 0.000000
2.713477 -1.279469 0.000000 19.000000 0.000000
2.792355 -1.096702 0.000000 20.000000 0.000000
2.350837 -1.863751 0.000000 21.000000 0.000000
2.469260 -1.703747 0.000000 22.000000 0.000000
2.576813 -1.536241 0.000000 23.000000 0.000000
2.673020 -1.361971 0.000000 24.000000 0.000000
2.757457 -1.181705 0.000000 25.000000 0.000000
2.829755 -0.996236 0.000000 26.000000 0.000000
2.889593 -0.806381 0.000000 27.000000 0.000000
2.528555 -1.614437 0.000000 28.000000 0.000000
2.630054 -1.443196 0.000000 29.000000 0.000000
2.719974 -1.265600 0.000000 30.000000 0.000000
2.797917 -1.082433 0.000000 31.000000 0.000000
2.863542 -0.894499 0.000000 32.000000 0.000000
2.916559 -0.702627 0.000000 33.000000 0.000000
2.956735 -0.507661 0.000000 34.000000 0.000000
2.679938 -1.348308 0.000000 35.000000 0.000000
2.763454 -1.167613 0.000000 36.000000 0.000000
2.834804 -0.981777 0.000000 37.000000 0.000000
2.893672 -0.791619 0.000000 38.000000 0.000000
2.939800 -0.597976 0.000000 39.000000 0.000000
2.972985 -0.401699 0.000000 40.000000 0.000000
2.993079 -0.203654 0.000000 41.000000 0.000000
2.803406 -1.068135 0.000000 42.000000 0.000000
2.868071 -0.879869 0.000000 43.000000 0.000000
2.920108 -0.687729 0.000000 44.000000 0.000000
2.959288 -0.492561 0.000000 45.000000 0.000000
2.985439 -0.295224 0.000000 46.000000 0.000000
2.998445 -0.096587 0.000000 47.000000 0.000000
2.998249 0.102475 0.000000 48.000000 0.000000
2.047622 -2.192543 0.000000 49.000000 1.000000
2.188518 -2.051923 0.000000 50.000000 1.000000
2.319778 -1.902269 0.000000 51.000000 1.000000
2.440825 -1.744240 0.000000 52.000000 1.000000
2.551126 -1.578530 0.000000 53.000000 1.000000
2.650193 -1.405871 0.000000 54.000000 1.000000
2.737593 -1.227022 0.000000 55.000000 1.000000
2.260432 -1.972422 0.000000 56.000000 1.000000
2.386262 -1.818173 0.000000 57.000000 1.000000
2.501585 -1.655920 0.000000 58.000000 1.000000
2.605895 -1.486376 0.000000 59.000000 1.000000
2.698730 -1.310288 0.000000 60.000000 1.000000
2.779684 -1.128430 0.000000 61.000000 1.000000
2.848400 -0.941604 0.000000 62.000000 1.000000
2.449698 -1.731756 0.000000 63.000000 1.000000
2.559151 -1.565486 0.000000 64.000000 1.000000
2.657336 -1.392324 0.000000 65.000000 1.000000
2.743821 -1.213031 0.000000 66.000000 1.000000
2.818226 -1.028397 0.000000 67.000000 1.000000
2.880223 -0.839236 0.000000 68.000000 1.000000
2.929538 -0.646379 0.000000 69.000000 1.000000
2.613449 -1.473053 0.000000 70.000000 1.000000
2.705384 -1.296493 0.000000 71.000000 1.000000
2.785409 -1.114225 0.000000 72.000000 1.000000
2.853169 -0.927051 0.000000 73.000000 1.000000
2.908368 -0.735795 0.000000 74.000000 1.000000
2.950762 -0.541300 0.000000 75.000000 1.000000
2.980163 -0.344421 0.000000 76.000000 1.000000
2.749978 -1.199008 0.000000 77.000000 1.000000
2.823440 -1.013997 0.000000 78.000000 1.000000
2.884470 -0.824521 0.000000 79.000000 1.000000
2.932800 -0.631415 0.000000 80.000000 1.000000
2.968217 -0.435530 0.000000 81.000000 1.000000
2.990566 -0.237726 0.000000 82.000000 1.000000
2.999748 -0.038876 0.000000 83.000000 1.000000
2.857865 -0.912473 0.000000 84.000000 1.000000
2.912086 -0.720938 0.000000 85.000000 1.000000
2.953487 -0.526229 0.000000 86.000000 1.000000
2.981883 -0.329203 0.000000 87.000000 1.000000
2.997150 -0.130727 0.000000 88.000000 1.000000
2.999222 0.068324 0.000000 89.000000 1.000000
2.988088 0.267074 0.000000 90.000000 1.000000
2.935985 -0.616435 0.000000 91.000000 1.000000
2.970402 -0.420371 0.000000 92.000000 1.000000
2.991741 -0.222456 0.000000 93.000000 1.000000
2.999907 -0.023562 0.000000 94.000000 1.000000
2.994866 0.175436 0.000000 95.000000 1.000000
2.976639 0.373662 0.000000 96.000000 1.000000
2.945305 0.570242 0.000000 97.000000 1.000000
2.365402 -1.845230 0.000000 98.000000 2.000000
2.482565 -1.684301 0.000000 99.000000 2.000000
2.588799 -1.515956 0.000000 100.000000 2.000000
2.683634 -1.340936 0.000000 101.000000 2.000000
2.766654 -1.160012 0.000000 102.000000 2.000000
2.837492 -0.973981 0.000000 103.000000 2.000000
2.895837 -0.783662 0.000000 104.000000 2.000000
2.541157 -1.594528 0.000000 105.000000 2.000000
2.641308 -1.422495 0.000000 106.000000 2.000000
2.729830 -1.244199 0.000000 107.000000 2.000000
2.806332 -1.060425 0.000000 108.000000 2.000000
2.870479 -0.871981 0.000000 109.000000 2.000000
2.921987 -0.679699 0.000000 110.000000 2.000000
2.960631 -0.484424 0.000000 111.000000 2.000000
2.690444 -1.327218 0.000000 112.000000 2.000000
2.772539 -1.145873 0.000000 113.000000 2.000000
2.842427 -0.959483 0.000000 114.000000 2.000000
2.899800 -0.768868 0.000000 115.000000 2.000000
2.944406 -0.574868 0.000000 116.000000 2.000000
2.976048 -0.378337 0.000000 117.000000 2.000000
2.994587 -0.180140 0.000000 118.000000 2.000000
2.811709 -1.046084 0.000000 119.000000 2.000000
2.874893 -0.857316 0.000000 120.000000 2.000000
2.925419 -0.664773 0.000000 121.000000 2.000000
2.963065 -0.469303 0.000000 122.000000 2.000000
2.987665 -0.271767 0.000000 123.000000 2.000000
2.999111 -0.073035 0.000000 124.000000 2.000000
2.997352 0.126019 0.000000 125.000000 2.000000
2.903688 -0.754054 0.000000 126.000000 2.000000
2.947302 -0.559829 0.000000 127.000000 2.000000
2.977941 -0.363139 0.000000 128.000000 2.000000
2.995467 -0.164851 0.000000 129.000000 2.000000
2.999805 0.034164 0.000000 130.000000 2.000000
2.990936 0.233028 0.000000 131.000000 2.000000
2.968898 0.430867 0.000000 132.000000 2.000000
2.965422 -0.454171 0.000000 133.000000 2.000000
2.989013 -0.256512 0.000000 134.000000 2.000000
2.999445 -0.057723 0.000000 135.000000 2.000000
2.996670 0.141319 0.000000 136.000000 2.000000
2.980701 0.339740 0.000000 137.000000 2.000000
2.951608 0.536664 0.000000 138.000000 2.000000
2.909520 0.731226 0.000000 139.000000 2.000000
2.996270 -0.149556 0.000000 140.000000 2.000000
2.999592 0.049478 0.000000 141.000000 2.000000
2.989707 0.248294 0.000000 142.000000 2.000000
2.966660 0.446017 0.000000 143.000000 2.000000
2.930550 0.641777 0.000000 144.000000 2.000000
2.881537 0.834710 0.000000 145.000000 2.000000
2.819838 1.023969 0.000000 146.000000 2.000000
2.624937 -1.452482 0.000000 147.000000 3.000000
2.715483 -1.275205 0.000000 148.000000 3.000000
2.794074 -1.092314 0.000000 149.000000 3.000000
2.860363 -0.904614 0.000000 150.000000 3.000000
2.914057 -0.712931 0.000000 151.000000 3.000000
2.954922 -0.518108 0.000000 152.000000 3.000000
2.982777 -0.321005 0.000000 153.000000 3.000000
2.759310 -1.177373 0.000000 154.000000 3.000000
2.831316 -0.991790 0.000000 155.000000 3.000000
2.890856 -0.801841 0.000000 156.000000 3.000000
2.937668 -0.608362 0.000000 157.000000 3.000000
2.971546 -0.412204 0.000000 158.000000 3.000000
2.992341 -0.214231 0.000000 159.000000 3.000000
2.999961 -0.015315 0.000000 160.000000 3.000000
2.864943 -0.890000 0.000000 161.000000 3.000000
2.917659 -0.698045 0.000000 162.000000 3.000000
2.957528 -0.503016 0.000000 163.000000 3.000000
2.984376 -0.305773 0.000000 164.000000 3.000000
2.998085 -0.107184 0.000000 165.000000 3.000000
2.998593 0.091877 0.000000 166.000000 3.000000
2.985898 0.290534 0.000000 167.000000 3.000000
2.940736 -0.593357 0.000000 168.000000 3.000000
2.973612 -0.397029 0.000000 169.000000 3.000000
2.993396 -0.198952 0.000000 170.000000 3.000000
3.000000 0.000000 0.000000 171.000000 3.000000
2.993396 0.198952 0.000000 172.000000 3.000000
2.973612 0.397029 0.000000 173.000000 3.000000
2.940736 0.593357 0.000000 174.000000 3.000000
2.985898 -0.290534 0.000000 175.000000 3.000000
2.998593 -0.091877 0.000000 176.000000 3.000000
2.998085 0.107184 0.000000 177.000000 3.000000
2.984376 0.305773 0.000000 178.000000 3.000000
2.957528 0.503016 0.000000 179.000000 3.000000
2.917659 0.698045 0.000000 180.000000 3.000000
2.864943 0.890000 0.000000 181.000000 3.000000
2.999961 0.015315 0.000000 182.000000 3.000000
2.992341 0.214231 0.000000 183.000000 3.000000
2.971546 0.412204 0.000000 184.000000 3.000000
2.937668 0.608362 0.000000 185.000000 3.000000
2.890856 0.801841 0.000000 186.000000 3.000000
2.831316 0.991790 0.000000 187.000000 3.000000
2.759310 1.177373 0.000000 188.000000 3.000000
2.982777 0.321005 0.000000 189.000000 3.000000
2.954922 0.518108 0.000000 190.000000 3.000000
2.914057 0.712931 0.000000 191.000000 3.000000
2.860363 0.904614 0.000000 192.000000 3.000000
2.794074 1.092314 0.000000 193.000000 3.000000
2.715483 1.275205 0.000000 194.000000 3.000000
2.624937 1.452482 0.000000 195.000000 3.000000
2.819838 -1.023969 0.000000 196.000000 4.000000
2.881537 -0.834710 0.000000 197.000000 4.000000
2.930550 -0.641777 0.000000 198.000000 4.000000
2.966660 -0.446017 0.000000 199.000000 4.000000
2.989707 -0.248294 0.000000 200.000000 4.000000
2.999592 -0.049478 0.000000 201.000000 4.000000
2.996270 0.149556 0.000000 202.000000 4.000000
2.909520 -0.731226 0.000000 203.000000 4.000000
2.951608 -0.536664 0.000000 204.000000 4.000000
2.980701 -0.339740 0.000000 205.000000 4.000000
2.996670 -0.141319 0.000000 206.000000 4.000000
2.999445 0.057723 0.000000 207.000000 4.000000
2.989013 0.256512 0.000000 208.000000 4.000000
2.965422 0.454171 0.000000 209.000000 4.000000
2.968898 -0.430867 0.000000 210.000000 4.000000
2.990936 -0.233028 0.000000 211.000000 4.000000
2.999805 -0.034164 0.000000 212.000000 4.000000
2.995467 0.164851 0.000000 213.000000 4.000000
2.977941 0.363139 0.000000 214.000000 4.000000
2.947302 0.559829 0.000000 215.000000 4.000000
2.903688 0.754054 0.000000 216.000000 4.000000
2.997352 -0.126019 0.000000 217.000000 4.000000
2.999111 0.073035 0.000000 218.000000 4.000000
2.987665 0.271767 0.000000 219.000000 4.000000
2.963065 0.469303 0.000000 220.000000 4.000000
2.925419 0.664773 0.000000 221.000000 4.000000
2.874893 0.857316 0.000000 222.000000 4.000000
2.811709 1.046084 0.000000 223.000000 4.000000
2.994587 0.180140 0.000000 224.000000 4.000000
2.976048 0.378337 0.000000 225.000000 4.000000
2.944406 0.574868 0.000000 226.000000 4.000000
2.899800 0.768868 0.000000 227.000000 4.000000
2.842427 0.959483 0.000000 228.000000 4.000000
2.772539 1.145873 0.000000 229.000000 4.000000
2.690444 1.327218 0.000000 230.000000 4.000000
2.960631 0.484424 0.000000 231.000000 4.000000
2.921987 0.679699 0.000000 232.000000 4.000000
2.870479 0.871981 0.000000 233.000000 4.000000
2.806332 1.060425 0.000000 234.000000 4.000000
2.729830 1.244199 0.000000 235.000000 4.000000
2.641308 1.422495 0.000000 236.000000 4.000000
2.541157 1.594528 0.000000 237.000000 4.000000
2.895837 0.783662 0.000000 238.000000 4.000000
2.837492 0.973981 0.000000 239.000000 4.000000
2.766654 1.160012 0.000000 240.000000 4.000000
2.683634 1.340936 0.000000 241.000000 4.000000
2.588799 1.515956 0.000000 242.000000 4.000000
2.482565 1.684301 0.000000 243.000000 4.000000
2.365402 1.845230 0.000000 244.000000 4.000000
2.945305 -0.570242 0.000000 245.000000 5.000000
2.976639 -0.373662 0.000000 246.000000 5.000000
2.994866 -0.175436 0.000000 247.000000 5.000000
2.999907 0.023562 0.000000 248.000000 5.000000
2.991741 0.222456 0.000000 249.000000 5.000000
2.970402 0.420371 0.000000 250.000000 5.000000
2.935985 0.616435 0.000000 251.000000 5.000000
2.988088 -0.267074 0.000000 252.000000 5.000000
2.999222 -0.068324 0.000000 253.000000 5.000000
2.997150 0.130727 0.000000 254.000000 5.000000
2.981883 0.329203 0.000000 255.000000 5.000000
2.953487 0.526229 0.000000 256.000000 5.000000
2.912086 0.720938 0.000000 257.000000 5.000000
2.857865 0.912473 0.000000 258.000000 5.000000
2.999748 0.038876 0.000000 259.000000 5.000000
2.990566 0.237726 0.000000 260.000000 5.000000
2.968217 0.435530 0.000000 261.000000 5.000000
2.932800 0.631415 0.000000 262.000000 5.000000
2.884470 0.824521 0.000000 263.000000 5.000000
2.823440 1.013997 0.000000 264.000000 5.000000
2.749978 1.199008 0.000000 265.000000 5.000000
2.980163 0.344421 0.000000 266.000000 5.000000
2.950762 0.541300 0.000000 267.000000 5.000000
2.908368 0.735795 0.000000 268.000000 5.000000
2.853169 0.927051 0.000000 269.000000 5.000000
2.785409 1.114225 0.000000 270.000000 5.000000
2.705384 1.296493 0.000000 271.000000 5.000000
2.613449 1.473053 0.000000 272.000000 5.000000
2.929538 0.646379 0.000000 273.000000 5.000000
2.880223 0.839236 0.000000 274.000000 5.000000
2.818226 1.028397 0.000000 275.000000 5.000000
2.743821 1.213031 0.000000 276.000000 5.000000
2.657336 1.392324 0.000000 277.000000 5.000000
2.559151 1.565486 0.000000 278.000000 5.000000
2.449698 1.731756 0.000000 279.000000 5.000000
2.848400 0.941604 0.000000 280.000000 5.000000
2.779684 1.128430 0.000000 281.000000 5.000000
2.698730 1.310288 0.000000 282.000000 5.000000
2.605895 1.486376 0.000000 283.000000 5.000000
2.501585 1.655920 0.000000 284.000000 5.000000
2.386262 1.818173 0.000000 285.000000 5.000000
2.260432 1.972422 0.000000 286.000000 5.000000
2.737593 1.227022 0.000000 287.000000 5.000000
2.650193 1.405871 0.000000 288.000000 5.000000
2.551126 1.578530 0.000000 289.000000 5.000000
2.440825 1.744240 0.000000 290.000000 5.000000
2.319778 1.902269 0.000000 291.000000 5.000000
2.188518 2.051923 0.000000 292.000000 5.000000
2.047622 2.192543 0.000000 293.000000 5.000000
2.998249 -0.102475 0.000000 294.000000 6.000000
2.998445 0.096587 0.000000 295.000000 6.000000
2.985439 0.295224 0.000000 296.000000 6.000000
2.959288 0.492561 0.000000 297.000000 6.000000
2.920108 0.687729 0.000000 298.000000 6.000000
2.868071 0.879869 0.000000 299.000000 6.000000
2.803406 1.068135 0.000000 300.000000 6.000000
2.993079 0.203654 0.000000 301.000000 6.000000
2.972985 0.401699 0.000000 302.000000 6.000000
2.939800 0.597976 0.000000 303.000000 6.000000
2.893672 0.791619 0.000000 304.000000 6.000000
2.834804 0.981777 0.000000 305.000000 6.000000
2.763454 1.167613 0.000000 306.000000 6.000000
2.679938 1.348308 0.000000 307.000000 6.000000
2.956735 0.507661 0.000000 308.000000 6.000000
2.916559 0.702627 0.000000 309.000000 6.000000
2.863542 0.894499 0.000000 310.000000 6.000000
2.797917 1.082433 0.000000 311.000000 6.000000
2.719974 1.265600 0.000000 312.000000 6.000000
2.630054 1.443196 0.000000 313.000000 6.000000
2.528555 1.614437 0.000000 314.000000 6.000000
2.889593 0.806381 0.000000 315.000000 6.000000
2.829755 0.996236 0.000000 316.000000 6.000000
2.757457 1.181705 0.000000 317.000000 6.000000
2.673020 1.361971 0.000000 318.000000 6.000000
2.576813 1.536241 0.000000 319.000000 6.000000
2.469260 1.703747 0.000000 320.000000 6.000000
2.350837 1.863751 0.000000 321.000000 6.000000
2.792355 1.096702 0.000000 322.000000 6.000000
2.713477 1.279469 0.000000 323.000000 6.000000
2.622653 1.456604 0.000000 324.000000 6.000000
2.520281 1.627325 0.000000 325.000000 6.000000
2.406812 1.790881 0.000000 326.000000 6.000000
2.282748 1.946552 0.000000 327.000000 6.000000
2.148632 2.093653 0.000000 328.000000 6.000000
2.666032 1.375600 0.000000 329.000000 6.000000
2.568937 1.549376 0.000000 330.000000 6.000000
2.460531 1.716330 0.000000 331.000000 6.000000
2.341291 1.875728 0.000000 332.000000 6.000000
2.211744 2.026867 0.000000 333.000000 6.000000
2.072458 2.169082 0.000000 334.000000 6.000000
1.924048 2.301747 0.000000 335.000000 6.000000
2.511940 1.640170 0.000000 336.000000 6.000000
2.397639 1.803144 0.000000 337.000000 6.000000
2.272780 1.958180 0.000000 338.000000 6.000000
2.137916 2.104594 0.000000 339.000000 6.000000
1.993638 2.241742 0.000000 340.000000 6.000000
1.840582 2.369020 0.000000 341.000000 6.000000
1.679423 2.485868 0.000000 342.000000 6.000000
